# xmcd CD database file
#
# Track frame offsets:
#	150
#	87802
#	170276
#	230305
#
# Disc length: 3971 seconds
#
# Revision: 0
# Processed by: cddbd v1.5.2PL0 Copyright (c) Steve Scherf et al.
# Submitted via: CDex 1.70beta2
#
DISCID=200f8104
DTITLE=Aanderud - Hecht - Lettner - Live in Vienna 2011
DYEAR=2011
DGENRE=Jazz
TTITLE0=Game One
TTITLE1=Game Two
TTITLE2=Game Three
TTITLE3=Game Four
EXTD=YEAR: 2011
EXTT0=
EXTT1=
EXTT2=
EXTT3=
PLAYORDER=
